<svg xmlns="http://www.w3.org/2000/svg" width="32" height="42" viewBox="0 0 32 42"><defs></defs><path d="M6 1H26A5 5 0 0 1 31 6V29L17.7 39.4A2.7 2.7 0 0 1 14.3 39.4L1 29V6A5 5 0 0 1 6 1Z" fill="#F8F4F0"></path><g transform="translate(16 19) scale(0.8) translate(-12 -12)"><rect x="3.7" y="4.4" width="16.6" height="11.6" rx="2.2" fill="#625249"></rect><path d="M9.4 16.4L7.6 20.6M14.6 16.4L16.4 20.6" fill="none" stroke="#625249" stroke-width="2.4" stroke-linecap="round"></path></g><path d="M6 1H26A5 5 0 0 1 31 6V29L17.7 39.4A2.7 2.7 0 0 1 14.3 39.4L1 29V6A5 5 0 0 1 6 1Z" fill="none" stroke="#625249" stroke-width="1.8" stroke-linejoin="round"></path></svg>