<svg width="24" height="16" viewBox="0 0 24 16" fill="none" xmlns="http://www.w3.org/2000/svg">
  <path d="M11.667 0C16.9637 0 21.7236 3.14452 23.2578 7.75293L23.334 7.97949L23.2578 8.20703C21.7236 12.7338 16.9637 15.96 11.667 15.96C6.37032 15.9599 1.61035 12.8154 0.0761719 8.20703L0 7.97949L0.0761719 7.75293C1.61035 3.22624 6.37032 7.68021e-05 11.667 0ZM11.667 1.37695C6.98303 1.37703 2.84167 4.06559 1.45898 7.97949C2.84149 11.8937 6.98283 14.5829 11.667 14.583C16.3512 14.583 20.4935 11.8937 21.876 7.97949C20.4933 4.06543 16.3511 1.37695 11.667 1.37695ZM11.667 3.30176C14.1987 3.30176 16.2695 5.37259 16.2695 7.9043C16.1935 10.5116 14.1986 12.5068 11.667 12.5068C9.13547 12.5068 7.06468 10.4358 7.06445 7.9043C7.06445 5.37263 9.13533 3.30182 11.667 3.30176ZM11.667 4.75391C9.89959 4.75397 8.44153 6.2121 8.44141 7.97949C8.44141 9.74698 9.89951 11.206 11.667 11.2061C13.4345 11.2061 14.8926 9.74702 14.8926 7.97949C14.8925 6.21206 13.4344 4.75391 11.667 4.75391Z" fill="currentColor"/>
</svg>
